<svg width="1255" height="200" viewBox="0 0 1255 200" fill="none" xmlns="http://www.w3.org/2000/svg">
<mask id="mask0_22_156" style="mask-type:luminance" maskUnits="userSpaceOnUse" x="0" y="0" width="1255" height="200">
<path d="M0 0L1254.61 0V200L0 200L0 0Z" fill="white" style="fill:white;fill-opacity:1;"/>
</mask>
<g mask="url(#mask0_22_156)">
<path d="M1186.84 171.378C1187.62 180.489 1188.55 189.591 1189.64 198.673C1193.92 199.557 1198.4 199.989 1203.08 199.989C1207 199.989 1210.71 199.723 1214.21 199.193C1213.22 191.024 1212.38 182.836 1211.66 174.638C1208.99 175.315 1206 175.659 1202.68 175.659C1198.97 175.659 1195.46 175.089 1192.16 173.931C1190.26 173.263 1188.48 172.409 1186.85 171.358M927.108 161.942C927.717 174.245 928.512 186.557 929.543 198.83C929.837 198.722 930.142 198.604 930.436 198.476C932.842 197.465 934.933 196.11 936.72 194.422C938.507 192.733 939.911 190.71 940.942 188.344C941.973 185.978 942.493 183.445 942.493 180.745C942.493 178.044 941.973 175.511 940.942 173.145C939.911 170.779 938.497 168.756 936.72 167.068C934.933 165.379 932.832 164.024 930.436 163.013C929.346 162.551 928.247 162.198 927.118 161.952M922.905 161.481C920.156 161.481 917.613 161.991 915.277 163.003C912.94 164.014 910.878 165.369 909.091 167.058C907.304 168.746 905.9 170.779 904.869 173.135C903.838 175.502 903.318 178.035 903.318 180.735C903.318 183.435 903.828 185.978 904.869 188.334C905.9 190.7 907.304 192.733 909.091 194.412C910.878 196.1 912.94 197.455 915.277 198.467C917.613 199.478 920.156 199.989 922.905 199.989C924.702 199.989 926.45 199.743 928.149 199.272C927.127 186.734 926.332 174.206 925.733 161.677C924.8 161.54 923.858 161.471 922.905 161.471M1157.03 117.878C1155.75 119.989 1154.61 122.227 1153.61 124.593C1150.86 131.083 1149.48 138.378 1149.48 146.488V148.923C1149.48 157.033 1150.86 164.26 1153.61 170.612C1155.41 174.795 1157.67 178.526 1160.37 181.834C1158.46 160.548 1157.39 139.203 1157.04 117.887M873.725 116.768C874.157 139.203 875.178 161.255 876.7 182.728V129.09C876.7 124.417 875.709 120.303 873.725 116.768ZM1132.2 107.961C1132.34 120.931 1132.73 133.882 1133.35 146.802C1134.24 163.562 1135.58 180.371 1137.45 197.151H1138.88V133.499C1138.88 126.606 1137.95 120.666 1136.1 115.659C1135.04 112.801 1133.75 110.239 1132.22 107.951M1182.74 97.2099C1182.54 97.2787 1182.35 97.3572 1182.15 97.4259C1175.62 99.8609 1169.92 103.376 1165.04 107.971C1162.37 110.484 1160.02 113.273 1158 116.356C1158.49 139.134 1159.86 161.658 1162 183.729C1162.93 184.741 1163.91 185.713 1164.94 186.626C1169.75 190.956 1175.41 194.264 1181.94 196.562C1183.93 197.259 1185.96 197.848 1188.03 198.339C1186.96 189.031 1186.06 179.684 1185.32 170.337C1184.68 169.856 1184.07 169.336 1183.48 168.796C1181.01 166.498 1179.06 163.631 1177.61 160.185C1176.17 156.739 1175.45 152.782 1175.45 148.324V147.107C1175.45 142.649 1176.17 138.624 1177.61 135.05C1178.97 131.692 1180.77 128.805 1183.03 126.4C1182.78 116.67 1182.68 106.95 1182.74 97.2296M976.013 96.6208H955.021V120.941H976.219C976.092 113.931 976.023 106.95 976.003 99.9984C976.003 98.8692 976.003 97.75 976.013 96.6208ZM1001.92 96.6208H977.073C977.034 104.721 977.073 112.841 977.201 120.941H990.888V197.161H1005.9C1005.7 195.011 1005.52 192.88 1005.34 190.73C1003.12 160.087 1001.85 128.531 1001.91 96.6208M1016.86 96.6208H1002.93C1002.93 97.75 1002.93 98.8791 1002.92 99.9984C1003.17 131.839 1004.55 164.456 1007.57 197.161H1016.86V96.6208ZM1053.56 96.6208H1043.64V197.161H1057.88C1056.25 180.126 1055.12 163.052 1054.41 145.988C1053.79 129.561 1053.49 113.096 1053.57 96.6208M1069.61 96.6208H1054.73C1054.69 130.062 1056.07 163.729 1059.35 197.161H1069.6V144.858C1069.6 136.346 1071.49 129.552 1075.27 124.485C1076.48 122.855 1077.9 121.491 1079.52 120.381C1079.41 114.422 1079.35 108.462 1079.35 102.502C1076.78 105.045 1074.77 108.079 1073.31 111.613H1069.6V96.611M1106.26 93.8913C1106.26 95.9336 1106.26 97.966 1106.26 99.9984C1106.29 107.303 1106.4 114.608 1106.59 121.933C1106.95 122.296 1107.3 122.669 1107.65 123.071C1111.15 127.195 1112.9 132.841 1112.9 139.998V197.161H1135.91C1132.67 166.773 1131.14 136.326 1131.04 106.321C1130.21 105.241 1129.32 104.24 1128.36 103.307C1125.07 100.067 1121.26 97.6616 1116.93 96.1103C1113.56 94.9026 1110.01 94.1662 1106.27 93.8913M1103 93.7735C1095.99 93.7735 1089.88 95.3248 1084.66 98.4372C1083.13 99.3503 1081.73 100.371 1080.44 101.501C1080.48 107.539 1080.57 113.597 1080.71 119.645C1083.93 117.799 1087.85 116.876 1092.5 116.876C1097.79 116.876 1102.09 118.202 1105.39 120.862C1105.25 113.891 1105.19 106.93 1105.19 99.9885C1105.19 97.9463 1105.18 95.8746 1105.19 93.8226C1104.48 93.7931 1103.75 93.7735 1103.01 93.7735M1203.07 93.7735C1196.26 93.7735 1189.83 94.7946 1183.77 96.8467C1183.77 97.8972 1183.77 98.938 1183.77 99.9885C1183.79 108.383 1183.94 116.798 1184.19 125.222C1186.51 123.052 1189.16 121.353 1192.15 120.126C1195.45 118.781 1198.96 118.103 1202.67 118.103C1204.81 118.103 1206.82 118.26 1208.7 118.575C1208.58 112.379 1208.52 106.184 1208.53 99.9984C1208.53 97.9856 1208.53 95.9826 1208.53 93.9699C1206.76 93.8422 1204.94 93.7833 1203.08 93.7833M1003.08 47.5683C1000.56 47.637 998.212 48.1378 996.042 49.0803C993.706 50.0916 991.644 51.4466 989.857 53.1353C988.07 54.8241 986.666 56.8565 985.635 59.2129C984.604 61.5791 984.084 64.1123 984.084 66.8123C984.084 69.5124 984.604 72.0553 985.635 74.4117C986.666 76.7779 988.07 78.8005 989.857 80.4893C991.644 82.178 993.706 83.533 996.042 84.5443C997.898 85.3494 999.872 85.8305 1001.98 85.9974C1002.12 73.2139 1002.48 60.4009 1003.07 47.5585M1004.12 47.5683C1003.53 60.4598 1003.18 73.2924 1003.02 86.0661C1003.24 86.0661 1003.46 86.0759 1003.68 86.0759C1006.29 86.0759 1008.8 85.5654 1011.2 84.5541C1013.61 83.5428 1015.7 82.1878 1017.49 80.4991C1019.27 78.8103 1020.68 76.7878 1021.71 74.4215C1022.74 72.0553 1023.25 69.5222 1023.25 66.8221C1023.25 64.1221 1022.74 61.5889 1021.71 59.2227C1020.68 56.8565 1019.26 54.8339 1017.49 53.1451C1015.7 51.4564 1013.6 50.1014 1011.2 49.0902C1008.93 48.1378 1006.58 47.6272 1004.12 47.5781M875.169 29.1098C874.128 48.5011 873.588 67.8334 873.5 87.0087C874.138 86.1447 874.746 85.261 875.306 84.3479C879.567 77.3867 881.727 69.8953 881.727 61.9129V55.2168C881.727 47.7745 880.363 40.8133 877.663 34.3037C876.926 32.5168 876.092 30.7789 875.169 29.1098ZM850.878 7.22468C848.63 39.4387 847.815 70.7396 847.903 99.9984C847.854 130.799 848.875 163.346 851.418 196.552H875.964C875.748 193.646 875.542 190.749 875.336 187.853C874.049 164.79 873.156 140.489 872.881 115.394C872.312 114.539 871.673 113.715 870.976 112.929C867.167 108.639 862.012 106.145 855.502 105.398V100.381C862.876 97.3179 868.639 93.1353 872.842 87.8629C872.999 68.2851 873.568 48.3243 874.658 28.1967C872.312 24.1613 869.415 20.4893 865.959 17.1707C861.776 13.1353 856.74 9.81672 850.868 7.21486M825.39 1.53003C824.565 13.3906 823.917 25.2021 823.426 36.9252C829.533 37.7598 834.364 39.9984 837.947 43.6508C842.601 48.3931 844.938 54.019 844.938 60.5089V63.8668C844.938 71.4858 842.601 77.3867 837.947 81.5595C834.118 85.0155 828.865 87.0381 822.14 87.6469C822.1 91.7902 822.071 95.9041 822.061 99.9984C822.15 107.608 822.277 115.256 822.444 122.963H824.85C830.23 122.963 834.079 124.348 836.416 127.136C838.733 129.925 839.891 133.558 839.891 138.025V196.552H849.68C844.967 131.829 845.939 66.8025 850.417 7.02831C849.268 6.52757 848.09 6.05629 846.882 5.61447C840.549 3.29733 833.391 1.93258 825.39 1.53985" fill="white" style="fill:white;fill-opacity:1;"/>
<path d="M745.686 191.635V196.554H745.971C745.873 194.924 745.775 193.265 745.686 191.635ZM692.707 160.02H668.131C668.583 171.733 669.152 183.436 669.849 195.14H694.13C693.934 191.35 693.757 187.619 693.59 183.908C693.247 175.955 692.942 167.982 692.697 160.029M718.617 160.02H693.944C694.366 171.733 694.916 183.446 695.623 195.14H720.198C719.52 183.24 719 171.517 718.607 160.02M729.859 160.02H720.051C720.345 168.405 720.679 176.524 721.052 184.379C721.249 187.943 721.455 191.517 721.671 195.14H737.969L729.859 160.02ZM718.872 104.242C718.892 107.806 718.931 111.35 718.971 114.855H721.327L718.872 104.242ZM821.258 87.7172C820.08 87.8056 818.863 87.8449 817.596 87.8449H796.123C796.094 99.676 796.222 111.409 796.477 122.965H821.15C821.052 111.203 821.091 99.4502 821.258 87.7271M691.931 79.7349L667.032 79.7349C666.914 91.4384 666.914 103.152 667.032 114.855L691.833 114.855C691.744 103.152 691.774 91.4384 691.931 79.7349ZM713.217 79.7349H693.05C692.913 91.4384 692.883 103.152 692.981 114.855H717.704C717.665 109.828 717.645 104.88 717.645 100C717.645 99.6662 717.645 99.3127 717.645 98.9789L713.207 79.7349M590.478 34.6294C589.26 77.4178 589.162 120.275 590.596 163.073C594.768 153.392 596.85 141.502 596.85 127.423V70.5548C596.85 56.3378 594.729 44.3692 590.478 34.6392M565.195 8.75798C562.495 70.5548 563.34 132.175 566.04 188.797C571.106 186.343 575.524 183.309 579.295 179.696C583.359 175.788 586.727 171.124 589.378 165.724C588.769 143.79 588.514 121.875 588.465 100.01C588.681 78.812 589.054 56.3869 589.82 33.1762C587.1 27.3834 583.595 22.4251 579.295 18.2916C575.318 14.4624 570.615 11.2911 565.195 8.7678M539.835 2.1404C539.579 7.90378 539.354 13.6672 539.147 19.4305C538.971 25.567 538.814 31.7035 538.666 37.84C544.685 39.2047 549.26 41.6593 552.382 45.1841C557.488 50.9475 560.051 59.3815 560.051 70.5449V124.055C560.051 136.868 557.488 146.313 552.382 152.342C549.27 156.043 544.714 158.606 538.715 160.039C539.049 171.949 539.491 183.868 540.06 195.768C549.28 194.747 557.351 192.685 564.273 189.602C561.7 129.298 562.063 68.866 564.822 8.57143C557.714 5.32155 549.388 3.17133 539.835 2.13058M746.766 1.41384L745.686 1.41384V18.8905C745.745 17.5945 745.804 16.2887 745.863 14.9926C746.148 10.4762 746.452 5.94993 746.776 1.40403M772.765 1.41384L747.424 1.41384C746.688 13.4217 746.118 25.4197 745.686 37.4276V156.868C746.187 170.103 746.855 183.328 747.719 196.544H772.147C767.886 131.605 768.367 66.323 772.775 1.40403M798.686 1.41384L773.227 1.41384C769.26 64.4968 770.281 127.305 772.952 185.498C773.178 189.18 773.413 192.872 773.669 196.554H782.486V122.965H795.21C795.043 111.262 795.024 99.5582 795.141 87.8449H782.486V36.5538H796.604C797.154 24.8306 797.851 13.1173 798.686 1.41384ZM820.394 1.41384L799.138 1.41384C798.323 13.1566 797.684 24.8797 797.213 36.5538H817.606C819.383 36.5538 821.072 36.6421 822.672 36.8287C822.986 28.9642 823.35 21.1193 823.742 13.3039C824.027 9.37654 824.331 5.42955 824.636 1.49239C823.251 1.43348 821.838 1.40403 820.394 1.40403M617.174 0L607.365 0V195.14H616.496C615.092 163.103 614.562 131.242 614.297 100C614.7 68.9936 615.387 35.1497 617.174 0ZM642.977 0L617.773 0C615.318 59.2047 614.238 126.677 617.733 195.14L642.387 195.14C639.236 130.162 639.108 64.9485 642.977 0ZM668.926 0L643.664 0C639.952 68.3456 641.248 132.833 643.232 182.73C643.448 186.824 643.674 190.957 643.919 195.14H668.386C667.748 183.446 667.218 171.743 666.816 160.02H644.165V114.855H665.834C665.736 103.152 665.765 91.4384 665.912 79.7349H644.165V35.1399L667.1 35.1399C667.572 23.4266 668.18 11.6937 668.917 0M694.906 0L669.751 0C669.074 11.7035 668.514 23.4266 668.082 35.1399H693.099C693.571 23.4168 694.169 11.7035 694.906 0ZM720.895 0L695.583 0C695.269 5.38046 694.984 10.7707 694.739 16.1512C694.484 22.4742 694.248 28.8071 694.042 35.1399H719.128C719.589 23.5346 720.168 11.8213 720.895 0ZM729.849 0L721.553 0C720.826 11.8311 720.267 23.5444 719.844 35.1399L737.959 35.1399L729.849 0Z" fill="white" style="fill:white;fill-opacity:1;"/>
<path d="M459.794 161.129H446.569L454.679 196.544H460.835C460.393 184.743 460.039 172.941 459.784 161.129M537.438 160.334C533.913 161.061 529.926 161.424 525.479 161.424H512.98C513.304 173.137 513.726 184.841 514.256 196.544H525.479C530.113 196.544 534.521 196.338 538.704 195.926C538.459 190.722 538.223 185.616 538.007 180.619C537.791 173.854 537.604 167.099 537.447 160.334M435.287 29.7303C434.737 53.1667 434.531 76.6031 434.521 100C434.62 122.592 434.924 145.194 435.533 167.786C441.227 157.33 444.075 143.879 444.075 127.423V70.555C444.075 53.8638 441.149 40.2555 435.277 29.7401M410.152 7.74696C408.031 68.503 407.904 129.387 410.25 190.152C416.593 187.492 422.023 184.006 426.519 179.686C429.406 176.907 431.939 173.756 434.119 170.221C432.98 122.956 433.275 75.6606 434.521 28.4048C432.253 24.6051 429.593 21.2276 426.519 18.2821C421.993 13.9325 416.534 10.4274 410.152 7.75678M384.261 1.86576C383.869 13.6871 383.574 25.5084 383.348 37.3395C390.643 38.557 396.063 41.1687 399.607 45.1844C404.713 50.9477 407.275 59.3817 407.275 70.5452V124.055C407.275 136.868 404.713 146.313 399.607 152.342C396.102 156.505 390.771 159.234 383.613 160.53C383.878 172.371 384.212 184.203 384.634 196.034C393.746 195.229 401.797 193.471 408.778 190.742C407.855 160.501 407.541 130.231 407.6 100C407.816 69.1608 408.267 38.2821 409.278 7.40332C402.082 4.51672 393.736 2.67087 384.242 1.86576M461.404 1.4043L438.459 1.4043L446.569 36.5442L460.196 36.5442C460.324 31.3601 460.471 26.1858 460.628 21.0017C460.874 14.4725 461.129 7.93351 461.404 1.4043ZM487.285 1.4043L462.062 1.4043C461.807 7.94332 461.591 14.4824 461.394 21.0214C461.276 26.1858 461.168 31.3699 461.06 36.5442H473.078V161.129L461.139 161.129C461.434 172.941 461.816 184.743 462.307 196.544L486.755 196.544C485.567 164.36 485.165 132.136 485.115 100C485.371 67.1775 485.94 34.2762 487.276 1.4043M513.304 1.4043L487.992 1.4043C486.686 34.2762 486.235 67.1873 486.205 100C486.343 132.175 486.952 164.379 488.346 196.544H512.754C512.253 184.841 511.861 173.137 511.556 161.424H509.887V36.5442H511.939C512.302 24.8211 512.764 13.1176 513.314 1.4043M525.479 1.4043L513.913 1.4043C513.422 13.1176 513.049 24.8309 512.764 36.5442H525.469C530.054 36.5442 534.148 36.9075 537.742 37.6439C538.105 25.7833 538.567 13.9227 539.126 2.07195C534.816 1.63012 530.27 1.4043 525.469 1.4043" fill="white" style="fill:white;fill-opacity:1;"/>
<path d="M201.659 195.788L201.492 196.544H201.679C201.679 196.299 201.669 196.044 201.659 195.788ZM280.236 167.668C280.432 177.29 280.668 186.922 280.962 196.544H286.784L280.236 167.668ZM71.7329 161.424H47.2165C47.3245 173.127 47.4718 184.831 47.6681 196.544H72.0962C71.9293 184.841 71.8115 173.137 71.7329 161.424ZM97.5847 161.424L73.2253 161.424C73.3824 173.127 73.5886 184.831 73.8242 196.544L97.9872 196.544C97.8007 184.841 97.673 173.127 97.5847 161.424ZM121.384 161.424H99.0672C99.244 173.127 99.46 184.841 99.7153 196.544H123.888C123.819 191.596 123.76 186.647 123.711 181.699L121.384 161.434M304.772 161.129H301.168L305.017 177.261C304.929 171.881 304.84 166.51 304.772 161.129ZM382.239 160.766C379.342 161.208 376.171 161.424 372.705 161.424H357.801C358.046 173.127 358.36 184.841 358.743 196.544H372.705C376.289 196.544 379.735 196.417 383.044 196.171C382.69 184.379 382.425 172.568 382.239 160.766ZM1237.41 156.043C1238.19 166.392 1239.18 176.682 1240.38 186.942C1247.75 179.941 1252.49 171.046 1254.61 160.265L1237.42 156.034M227.01 154.728H210.967L203.024 189.75C203.073 192.008 203.112 194.276 203.161 196.534H227.609C227.324 182.592 227.138 168.66 227.01 154.728ZM252.833 154.728H228.306C228.522 168.67 228.807 182.602 229.19 196.534H253.618C253.284 182.592 253.019 168.67 252.833 154.728ZM277.31 154.728L254.05 154.728C254.305 168.67 254.659 182.602 255.101 196.534L279.421 196.534C279.146 184.772 278.93 172.98 278.783 161.218L277.31 154.728ZM1229.05 153.982C1227.82 160.609 1225.11 165.872 1220.91 169.789C1218.7 171.851 1215.97 173.373 1212.72 174.355C1213.48 182.592 1214.39 190.84 1215.42 199.009C1224.38 197.477 1231.92 194.158 1238.02 189.053C1238.34 188.788 1238.65 188.513 1238.96 188.238C1237.78 177.428 1236.84 166.569 1236.12 155.719L1229.04 153.982M1235.21 102.74C1235.29 114.571 1235.64 126.382 1236.27 138.164L1254.62 133.51C1252.28 121.62 1246.69 112.028 1237.82 104.723C1236.98 104.026 1236.11 103.368 1235.22 102.74M149.21 98.989L125.94 196.534H149.917C149.327 164.016 149.111 131.507 149.21 98.989ZM1209.61 94.0504C1209.61 96.0337 1209.6 98.017 1209.61 100C1209.56 106.255 1209.59 112.519 1209.7 118.753C1214.37 119.686 1218.21 121.63 1221.23 124.585C1225.63 128.915 1228.24 134.05 1229.06 139.99L1235.19 138.439C1234.66 126.343 1234.39 114.247 1234.38 102.16C1227.53 97.5751 1219.28 94.8653 1209.63 94.0405M226.902 84.1436L218.773 119.617L226.794 119.617C226.775 113.078 226.765 106.539 226.755 100C226.804 94.7082 226.843 89.4357 226.892 84.1436M357.104 69.0037C357.035 79.3326 357.005 89.6714 357.015 100C357.045 104.065 357.074 108.12 357.104 112.185V69.0037ZM253.785 51.3012C253.481 74.07 253.412 96.8388 253.589 119.608H269.229L253.785 51.3012ZM246.657 19.7941H241.64L227.874 79.8825C227.835 93.1274 227.855 106.363 227.933 119.608H252.518C252.42 95.6017 252.558 71.5958 252.941 47.5997L246.657 19.7941ZM20.9818 1.4043L0 1.4043L0 196.544H20.3731C19.7742 140.815 20.0687 85.0567 20.5498 29.3375C20.6971 20.0297 20.8346 10.7121 20.972 1.4043M36.7992 1.4043L21.7182 1.4043C20.9033 66.4117 20.8444 131.507 21.9539 196.544H46.3034C46.1463 184.841 46.0187 173.137 45.9401 161.424H36.7992L36.7992 1.4043ZM176.348 1.4043L172.489 1.4043L150.28 94.5118C150.339 128.523 150.781 162.543 151.566 196.544H163.014L175.14 145.695C174.767 97.5948 175.189 49.4946 176.338 1.4043M202.307 1.4043L177.025 1.4043C175.994 47.6782 175.857 93.9915 176.436 140.285L201.581 34.8653C201.787 23.7116 202.032 12.558 202.307 1.4043ZM209.563 1.4043L202.955 1.4043C202.769 9.6419 202.602 17.8697 202.455 26.1073C202.455 27.8451 202.435 29.5928 202.425 31.3307L209.563 1.4043ZM279.931 1.4043L263.063 1.4043L271.281 36.5442H279.146C279.352 24.8309 279.607 13.1078 279.931 1.4043ZM305.842 1.4043L280.628 1.4043C280.422 9.15098 280.255 16.8977 280.118 24.6247C280.059 28.6012 280.01 32.5678 279.951 36.5442L305.017 36.5442C305.233 24.8309 305.498 13.1176 305.842 1.4043ZM331.861 1.4043L306.676 1.4043C306.333 13.1176 306.048 24.8309 305.822 36.5442H320.314V161.129H305.911C306.068 168.532 306.254 175.935 306.47 183.339L309.622 196.544H331.213C329.553 138.91 329.887 81.2178 331.124 23.6036C331.35 16.5442 331.595 9.12153 331.861 1.4043ZM357.742 1.4043L332.45 1.4043C331.478 34.2762 331.163 67.1677 331.183 100C331.566 132.097 331.998 164.311 332.941 196.544H357.202C355.189 131.527 355.464 66.4215 357.742 1.4043ZM372.715 1.4043L358.36 1.4043C357.987 13.1176 357.712 24.8309 357.496 36.5442H372.705C376.308 36.5442 379.607 36.77 382.602 37.2217C382.857 25.42 383.161 13.6183 383.564 1.81667C380.098 1.54175 376.475 1.4043 372.705 1.4043" fill="white" style="fill:white;fill-opacity:1;"/>
</g>
</svg>
